<mxfile host="app.diagrams.net" agent="Mozilla/5.0 (Windows NT 10.0; Win64; x64) AppleWebKit/537.36 (KHTML, like Gecko) Chrome/127.0.0.0 Safari/537.36" version="24.7.7">
  <diagram name="PÃ¡gina-1" id="bd3_f5M4Wyp4Gvl8gZUN">
    <mxGraphModel grid="1" page="1" gridSize="10" guides="1" tooltips="1" connect="1" arrows="1" fold="1" pageScale="1" pageWidth="827" pageHeight="1169" math="0" shadow="0">
      <root>
        <mxCell id="0" />
        <mxCell id="1" parent="0" />
        <mxCell id="JgxLomzHGOhPnX3tSS69-2" value="Crea" style="shape=rhombus;double=1;perimeter=rhombusPerimeter;whiteSpace=wrap;html=1;align=center;" vertex="1" parent="1">
          <mxGeometry x="200" y="520" width="120" height="60" as="geometry" />
        </mxCell>
        <mxCell id="LTa-TaZLpSLArg0W4BEq-1" value="Usuario" style="rounded=1;whiteSpace=wrap;html=1;" vertex="1" parent="1">
          <mxGeometry x="140" y="270" width="90" height="40" as="geometry" />
        </mxCell>
        <mxCell id="JgxLomzHGOhPnX3tSS69-70" style="edgeStyle=orthogonalEdgeStyle;rounded=0;orthogonalLoop=1;jettySize=auto;html=1;entryX=0;entryY=0.5;entryDx=0;entryDy=0;endArrow=none;endFill=0;" edge="1" parent="1" source="LTa-TaZLpSLArg0W4BEq-2" target="LTa-TaZLpSLArg0W4BEq-1">
          <mxGeometry relative="1" as="geometry">
            <Array as="points">
              <mxPoint x="80" y="290" />
            </Array>
          </mxGeometry>
        </mxCell>
        <mxCell id="LTa-TaZLpSLArg0W4BEq-2" value="id" style="ellipse;whiteSpace=wrap;html=1;" vertex="1" parent="1">
          <mxGeometry x="40" y="200" width="80" height="40" as="geometry" />
        </mxCell>
        <mxCell id="LTa-TaZLpSLArg0W4BEq-5" value="email" style="ellipse;whiteSpace=wrap;html=1;" vertex="1" parent="1">
          <mxGeometry x="110" y="170" width="80" height="40" as="geometry" />
        </mxCell>
        <mxCell id="LTa-TaZLpSLArg0W4BEq-53" style="edgeStyle=orthogonalEdgeStyle;rounded=0;orthogonalLoop=1;jettySize=auto;html=1;exitX=0.75;exitY=0;exitDx=0;exitDy=0;entryX=0.5;entryY=1;entryDx=0;entryDy=0;endArrow=none;endFill=0;" edge="1" parent="1" source="JgxLomzHGOhPnX3tSS69-4" target="JgxLomzHGOhPnX3tSS69-5">
          <mxGeometry relative="1" as="geometry" />
        </mxCell>
        <mxCell id="LTa-TaZLpSLArg0W4BEq-79" style="edgeStyle=orthogonalEdgeStyle;rounded=0;orthogonalLoop=1;jettySize=auto;html=1;exitX=0;exitY=0;exitDx=0;exitDy=0;entryX=1;entryY=0.5;entryDx=0;entryDy=0;endArrow=none;endFill=0;" edge="1" parent="1" source="JgxLomzHGOhPnX3tSS69-4" target="JgxLomzHGOhPnX3tSS69-8">
          <mxGeometry relative="1" as="geometry" />
        </mxCell>
        <mxCell id="LTa-TaZLpSLArg0W4BEq-83" style="edgeStyle=orthogonalEdgeStyle;rounded=0;orthogonalLoop=1;jettySize=auto;html=1;exitX=0.75;exitY=1;exitDx=0;exitDy=0;endArrow=none;endFill=0;" edge="1" parent="1" source="JgxLomzHGOhPnX3tSS69-4" target="JgxLomzHGOhPnX3tSS69-7">
          <mxGeometry relative="1" as="geometry" />
        </mxCell>
        <mxCell id="JgxLomzHGOhPnX3tSS69-4" value="Survey" style="rounded=1;whiteSpace=wrap;html=1;" vertex="1" parent="1">
          <mxGeometry x="570" y="510" width="90" height="40" as="geometry" />
        </mxCell>
        <mxCell id="JgxLomzHGOhPnX3tSS69-68" style="edgeStyle=orthogonalEdgeStyle;rounded=0;orthogonalLoop=1;jettySize=auto;html=1;entryX=0.75;entryY=0;entryDx=0;entryDy=0;endArrow=none;endFill=0;" edge="1" parent="1" source="LTa-TaZLpSLArg0W4BEq-6" target="LTa-TaZLpSLArg0W4BEq-1">
          <mxGeometry relative="1" as="geometry" />
        </mxCell>
        <mxCell id="LTa-TaZLpSLArg0W4BEq-6" value="password" style="ellipse;whiteSpace=wrap;html=1;" vertex="1" parent="1">
          <mxGeometry x="200" y="180" width="80" height="40" as="geometry" />
        </mxCell>
        <mxCell id="JgxLomzHGOhPnX3tSS69-5" value="FinishDate" style="ellipse;whiteSpace=wrap;html=1;" vertex="1" parent="1">
          <mxGeometry x="650" y="420" width="80" height="40" as="geometry" />
        </mxCell>
        <mxCell id="JgxLomzHGOhPnX3tSS69-7" value="creationDate" style="ellipse;whiteSpace=wrap;html=1;" vertex="1" parent="1">
          <mxGeometry x="630" y="620" width="80" height="40" as="geometry" />
        </mxCell>
        <mxCell id="JgxLomzHGOhPnX3tSS69-8" value="title" style="ellipse;whiteSpace=wrap;html=1;" vertex="1" parent="1">
          <mxGeometry x="414" y="460" width="80" height="40" as="geometry" />
        </mxCell>
        <mxCell id="JgxLomzHGOhPnX3tSS69-9" value="questions" style="ellipse;whiteSpace=wrap;html=1;" vertex="1" parent="1">
          <mxGeometry x="550" y="600" width="80" height="40" as="geometry" />
        </mxCell>
        <mxCell id="JgxLomzHGOhPnX3tSS69-10" value="description" style="ellipse;whiteSpace=wrap;html=1;" vertex="1" parent="1">
          <mxGeometry x="800" y="400" width="80" height="40" as="geometry" />
        </mxCell>
        <mxCell id="JgxLomzHGOhPnX3tSS69-11" style="edgeStyle=orthogonalEdgeStyle;rounded=0;orthogonalLoop=1;jettySize=auto;html=1;endArrow=none;endFill=0;" edge="1" parent="1" source="JgxLomzHGOhPnX3tSS69-6">
          <mxGeometry relative="1" as="geometry">
            <mxPoint x="580" y="510" as="targetPoint" />
            <Array as="points">
              <mxPoint x="580" y="430" />
            </Array>
          </mxGeometry>
        </mxCell>
        <mxCell id="LTa-TaZLpSLArg0W4BEq-7" value="role" style="ellipse;whiteSpace=wrap;html=1;" vertex="1" parent="1">
          <mxGeometry x="270" y="210" width="80" height="40" as="geometry" />
        </mxCell>
        <mxCell id="JgxLomzHGOhPnX3tSS69-6" value="id" style="ellipse;whiteSpace=wrap;html=1;" vertex="1" parent="1">
          <mxGeometry x="400" y="410" width="80" height="40" as="geometry" />
        </mxCell>
        <mxCell id="LTa-TaZLpSLArg0W4BEq-41" style="edgeStyle=orthogonalEdgeStyle;rounded=0;orthogonalLoop=1;jettySize=auto;html=1;exitX=0.5;exitY=0;exitDx=0;exitDy=0;endArrow=none;endFill=0;" edge="1" parent="1" source="FkegxwKwUUVPsacCeXSq-2" target="LTa-TaZLpSLArg0W4BEq-1">
          <mxGeometry relative="1" as="geometry" />
        </mxCell>
        <mxCell id="LTa-TaZLpSLArg0W4BEq-12" value="Admin" style="rounded=1;whiteSpace=wrap;html=1;" vertex="1" parent="1">
          <mxGeometry x="140" y="420" width="90" height="40" as="geometry" />
        </mxCell>
        <mxCell id="JgxLomzHGOhPnX3tSS69-29" value="" style="edgeStyle=orthogonalEdgeStyle;rounded=0;orthogonalLoop=1;jettySize=auto;html=1;endArrow=none;endFill=0;exitX=0.25;exitY=0;exitDx=0;exitDy=0;" edge="1" parent="1" source="JgxLomzHGOhPnX3tSS69-18" target="JgxLomzHGOhPnX3tSS69-21">
          <mxGeometry relative="1" as="geometry" />
        </mxCell>
        <mxCell id="LTa-TaZLpSLArg0W4BEq-72" style="edgeStyle=orthogonalEdgeStyle;rounded=0;orthogonalLoop=1;jettySize=auto;html=1;exitX=0.75;exitY=0;exitDx=0;exitDy=0;endArrow=none;endFill=0;" edge="1" parent="1" source="JgxLomzHGOhPnX3tSS69-18" target="JgxLomzHGOhPnX3tSS69-22">
          <mxGeometry relative="1" as="geometry" />
        </mxCell>
        <mxCell id="JgxLomzHGOhPnX3tSS69-18" value="report" style="rounded=1;whiteSpace=wrap;html=1;" vertex="1" parent="1">
          <mxGeometry x="200" y="780" width="90" height="40" as="geometry" />
        </mxCell>
        <mxCell id="LTa-TaZLpSLArg0W4BEq-14" value="SurveySection" style="rounded=1;whiteSpace=wrap;html=1;" vertex="1" parent="1">
          <mxGeometry x="1130" y="510" width="90" height="40" as="geometry" />
        </mxCell>
        <mxCell id="JgxLomzHGOhPnX3tSS69-64" style="edgeStyle=orthogonalEdgeStyle;rounded=0;orthogonalLoop=1;jettySize=auto;html=1;entryX=0.25;entryY=0;entryDx=0;entryDy=0;endArrow=none;endFill=0;" edge="1" parent="1" source="LTa-TaZLpSLArg0W4BEq-17" target="LTa-TaZLpSLArg0W4BEq-14">
          <mxGeometry relative="1" as="geometry" />
        </mxCell>
        <mxCell id="LTa-TaZLpSLArg0W4BEq-17" value="id" style="ellipse;whiteSpace=wrap;html=1;" vertex="1" parent="1">
          <mxGeometry x="1050" y="430" width="80" height="40" as="geometry" />
        </mxCell>
        <mxCell id="JgxLomzHGOhPnX3tSS69-65" style="edgeStyle=orthogonalEdgeStyle;rounded=0;orthogonalLoop=1;jettySize=auto;html=1;entryX=0.5;entryY=0;entryDx=0;entryDy=0;endArrow=none;endFill=0;" edge="1" parent="1" source="LTa-TaZLpSLArg0W4BEq-18" target="LTa-TaZLpSLArg0W4BEq-14">
          <mxGeometry relative="1" as="geometry" />
        </mxCell>
        <mxCell id="LTa-TaZLpSLArg0W4BEq-18" value="title" style="ellipse;whiteSpace=wrap;html=1;" vertex="1" parent="1">
          <mxGeometry x="1201" y="430" width="80" height="40" as="geometry" />
        </mxCell>
        <mxCell id="JgxLomzHGOhPnX3tSS69-24" value="" style="edgeStyle=orthogonalEdgeStyle;rounded=0;orthogonalLoop=1;jettySize=auto;html=1;endArrow=none;endFill=0;" edge="1" parent="1" source="JgxLomzHGOhPnX3tSS69-20" target="JgxLomzHGOhPnX3tSS69-18">
          <mxGeometry relative="1" as="geometry" />
        </mxCell>
        <mxCell id="JgxLomzHGOhPnX3tSS69-20" value="id" style="ellipse;whiteSpace=wrap;html=1;" vertex="1" parent="1">
          <mxGeometry x="80" y="780" width="80" height="40" as="geometry" />
        </mxCell>
        <mxCell id="JgxLomzHGOhPnX3tSS69-21" value="survey" style="ellipse;whiteSpace=wrap;html=1;" vertex="1" parent="1">
          <mxGeometry x="130" y="670" width="80" height="40" as="geometry" />
        </mxCell>
        <mxCell id="JgxLomzHGOhPnX3tSS69-22" value="stadistics" style="ellipse;whiteSpace=wrap;html=1;" vertex="1" parent="1">
          <mxGeometry x="231" y="692.5" width="80" height="40" as="geometry" />
        </mxCell>
        <mxCell id="LTa-TaZLpSLArg0W4BEq-88" style="edgeStyle=orthogonalEdgeStyle;rounded=0;orthogonalLoop=1;jettySize=auto;html=1;exitX=0.75;exitY=1;exitDx=0;exitDy=0;entryX=0;entryY=0;entryDx=0;entryDy=0;endArrow=none;endFill=0;" edge="1" parent="1" source="LTa-TaZLpSLArg0W4BEq-23" target="LTa-TaZLpSLArg0W4BEq-27">
          <mxGeometry relative="1" as="geometry" />
        </mxCell>
        <mxCell id="LTa-TaZLpSLArg0W4BEq-23" value="Response" style="rounded=1;whiteSpace=wrap;html=1;" vertex="1" parent="1">
          <mxGeometry x="880" y="830" width="90" height="40" as="geometry" />
        </mxCell>
        <mxCell id="JgxLomzHGOhPnX3tSS69-61" style="edgeStyle=orthogonalEdgeStyle;rounded=0;orthogonalLoop=1;jettySize=auto;html=1;entryX=0;entryY=0.75;entryDx=0;entryDy=0;endArrow=none;endFill=0;" edge="1" parent="1" source="LTa-TaZLpSLArg0W4BEq-24" target="LTa-TaZLpSLArg0W4BEq-23">
          <mxGeometry relative="1" as="geometry">
            <Array as="points">
              <mxPoint x="830" y="860" />
            </Array>
          </mxGeometry>
        </mxCell>
        <mxCell id="LTa-TaZLpSLArg0W4BEq-24" value="id" style="ellipse;whiteSpace=wrap;html=1;" vertex="1" parent="1">
          <mxGeometry x="780" y="910" width="80" height="40" as="geometry" />
        </mxCell>
        <mxCell id="JgxLomzHGOhPnX3tSS69-60" value="" style="edgeStyle=orthogonalEdgeStyle;rounded=0;orthogonalLoop=1;jettySize=auto;html=1;endArrow=none;endFill=0;" edge="1" parent="1" source="LTa-TaZLpSLArg0W4BEq-26" target="LTa-TaZLpSLArg0W4BEq-23">
          <mxGeometry relative="1" as="geometry" />
        </mxCell>
        <mxCell id="LTa-TaZLpSLArg0W4BEq-26" value="QuestionText" style="ellipse;whiteSpace=wrap;html=1;" vertex="1" parent="1">
          <mxGeometry x="740" y="830" width="80" height="40" as="geometry" />
        </mxCell>
        <mxCell id="LTa-TaZLpSLArg0W4BEq-27" value="Options" style="ellipse;whiteSpace=wrap;html=1;" vertex="1" parent="1">
          <mxGeometry x="960" y="940" width="80" height="40" as="geometry" />
        </mxCell>
        <mxCell id="JgxLomzHGOhPnX3tSS69-62" value="" style="edgeStyle=orthogonalEdgeStyle;rounded=0;orthogonalLoop=1;jettySize=auto;html=1;endArrow=none;endFill=0;" edge="1" parent="1" source="LTa-TaZLpSLArg0W4BEq-31" target="LTa-TaZLpSLArg0W4BEq-23">
          <mxGeometry relative="1" as="geometry" />
        </mxCell>
        <mxCell id="LTa-TaZLpSLArg0W4BEq-31" value="answers" style="ellipse;whiteSpace=wrap;html=1;" vertex="1" parent="1">
          <mxGeometry x="860" y="950" width="80" height="40" as="geometry" />
        </mxCell>
        <mxCell id="JgxLomzHGOhPnX3tSS69-19" value="creationDate" style="ellipse;whiteSpace=wrap;html=1;" vertex="1" parent="1">
          <mxGeometry x="200" y="870" width="80" height="40" as="geometry" />
        </mxCell>
        <mxCell id="JgxLomzHGOhPnX3tSS69-27" style="edgeStyle=orthogonalEdgeStyle;rounded=0;orthogonalLoop=1;jettySize=auto;html=1;entryX=0.577;entryY=1.112;entryDx=0;entryDy=0;entryPerimeter=0;endArrow=none;endFill=0;" edge="1" parent="1" source="JgxLomzHGOhPnX3tSS69-19" target="JgxLomzHGOhPnX3tSS69-18">
          <mxGeometry relative="1" as="geometry" />
        </mxCell>
        <mxCell id="LTa-TaZLpSLArg0W4BEq-87" style="edgeStyle=orthogonalEdgeStyle;rounded=0;orthogonalLoop=1;jettySize=auto;html=1;exitX=1;exitY=0.75;exitDx=0;exitDy=0;entryX=0;entryY=0.5;entryDx=0;entryDy=0;" edge="1" parent="1" source="LTa-TaZLpSLArg0W4BEq-32" target="LTa-TaZLpSLArg0W4BEq-33">
          <mxGeometry relative="1" as="geometry" />
        </mxCell>
        <mxCell id="LTa-TaZLpSLArg0W4BEq-32" value="Question" style="rounded=1;whiteSpace=wrap;html=1;" vertex="1" parent="1">
          <mxGeometry x="1380" y="732.5" width="90" height="40" as="geometry" />
        </mxCell>
        <mxCell id="LTa-TaZLpSLArg0W4BEq-33" value="id" style="ellipse;whiteSpace=wrap;html=1;" vertex="1" parent="1">
          <mxGeometry x="1590" y="782.5" width="80" height="40" as="geometry" />
        </mxCell>
        <mxCell id="LTa-TaZLpSLArg0W4BEq-35" value="user" style="ellipse;whiteSpace=wrap;html=1;" vertex="1" parent="1">
          <mxGeometry x="1390" y="822.5" width="80" height="40" as="geometry" />
        </mxCell>
        <mxCell id="JgxLomzHGOhPnX3tSS69-47" style="edgeStyle=orthogonalEdgeStyle;rounded=0;orthogonalLoop=1;jettySize=auto;html=1;entryX=0.5;entryY=1;entryDx=0;entryDy=0;endArrow=none;endFill=0;exitX=0.5;exitY=0;exitDx=0;exitDy=0;" edge="1" parent="1" source="LTa-TaZLpSLArg0W4BEq-36" target="LTa-TaZLpSLArg0W4BEq-32">
          <mxGeometry relative="1" as="geometry">
            <Array as="points">
              <mxPoint x="1520" y="860" />
              <mxPoint x="1520" y="810" />
              <mxPoint x="1425" y="810" />
            </Array>
          </mxGeometry>
        </mxCell>
        <mxCell id="LTa-TaZLpSLArg0W4BEq-36" value="survey" style="ellipse;whiteSpace=wrap;html=1;" vertex="1" parent="1">
          <mxGeometry x="1490" y="860" width="80" height="40" as="geometry" />
        </mxCell>
        <mxCell id="JgxLomzHGOhPnX3tSS69-48" value="" style="edgeStyle=orthogonalEdgeStyle;rounded=0;orthogonalLoop=1;jettySize=auto;html=1;endArrow=none;endFill=0;entryX=0.75;entryY=0;entryDx=0;entryDy=0;" edge="1" parent="1" source="LTa-TaZLpSLArg0W4BEq-40" target="LTa-TaZLpSLArg0W4BEq-32">
          <mxGeometry relative="1" as="geometry" />
        </mxCell>
        <mxCell id="LTa-TaZLpSLArg0W4BEq-40" value="ResponseType" style="ellipse;whiteSpace=wrap;html=1;" vertex="1" parent="1">
          <mxGeometry x="1440" y="660" width="110" height="40" as="geometry" />
        </mxCell>
        <mxCell id="JgxLomzHGOhPnX3tSS69-35" value="" style="edgeStyle=orthogonalEdgeStyle;rounded=0;orthogonalLoop=1;jettySize=auto;html=1;endArrow=none;endFill=0;" edge="1" parent="1" source="JgxLomzHGOhPnX3tSS69-30" target="JgxLomzHGOhPnX3tSS69-32">
          <mxGeometry relative="1" as="geometry" />
        </mxCell>
        <mxCell id="JgxLomzHGOhPnX3tSS69-38" value="" style="edgeStyle=orthogonalEdgeStyle;rounded=0;orthogonalLoop=1;jettySize=auto;html=1;endArrow=none;endFill=0;" edge="1" parent="1" source="JgxLomzHGOhPnX3tSS69-30" target="JgxLomzHGOhPnX3tSS69-33">
          <mxGeometry relative="1" as="geometry" />
        </mxCell>
        <mxCell id="LTa-TaZLpSLArg0W4BEq-48" style="edgeStyle=orthogonalEdgeStyle;rounded=0;orthogonalLoop=1;jettySize=auto;html=1;exitX=0.5;exitY=1;exitDx=0;exitDy=0;entryX=0.5;entryY=0;entryDx=0;entryDy=0;endArrow=none;endFill=0;" edge="1" parent="1" source="JgxLomzHGOhPnX3tSS69-30" target="JgxLomzHGOhPnX3tSS69-34">
          <mxGeometry relative="1" as="geometry" />
        </mxCell>
        <mxCell id="JgxLomzHGOhPnX3tSS69-30" value="options" style="rounded=1;whiteSpace=wrap;html=1;" vertex="1" parent="1">
          <mxGeometry x="1910" y="680" width="90" height="40" as="geometry" />
        </mxCell>
        <mxCell id="JgxLomzHGOhPnX3tSS69-32" value="id" style="ellipse;whiteSpace=wrap;html=1;" vertex="1" parent="1">
          <mxGeometry x="1915" y="600" width="80" height="40" as="geometry" />
        </mxCell>
        <mxCell id="JgxLomzHGOhPnX3tSS69-33" value="isSelected" style="ellipse;whiteSpace=wrap;html=1;" vertex="1" parent="1">
          <mxGeometry x="2070" y="680" width="80" height="40" as="geometry" />
        </mxCell>
        <mxCell id="JgxLomzHGOhPnX3tSS69-34" value="optionText" style="ellipse;whiteSpace=wrap;html=1;" vertex="1" parent="1">
          <mxGeometry x="1915" y="760" width="80" height="40" as="geometry" />
        </mxCell>
        <mxCell id="LTa-TaZLpSLArg0W4BEq-43" value="Tiene" style="shape=rhombus;double=1;perimeter=rhombusPerimeter;whiteSpace=wrap;html=1;align=center;fontStyle=1" vertex="1" parent="1">
          <mxGeometry x="910" y="500" width="120" height="60" as="geometry" />
        </mxCell>
        <mxCell id="LTa-TaZLpSLArg0W4BEq-44" value="Tiene" style="shape=rhombus;double=1;perimeter=rhombusPerimeter;whiteSpace=wrap;html=1;align=center;" vertex="1" parent="1">
          <mxGeometry x="1270" y="550" width="120" height="60" as="geometry" />
        </mxCell>
        <mxCell id="JgxLomzHGOhPnX3tSS69-45" style="edgeStyle=orthogonalEdgeStyle;rounded=0;orthogonalLoop=1;jettySize=auto;html=1;entryX=0.152;entryY=1.104;entryDx=0;entryDy=0;entryPerimeter=0;endArrow=none;endFill=0;" edge="1" parent="1" source="LTa-TaZLpSLArg0W4BEq-35" target="LTa-TaZLpSLArg0W4BEq-32">
          <mxGeometry relative="1" as="geometry">
            <Array as="points">
              <mxPoint x="1370" y="842.5" />
              <mxPoint x="1370" y="797.5" />
              <mxPoint x="1394" y="797.5" />
            </Array>
          </mxGeometry>
        </mxCell>
        <mxCell id="LTa-TaZLpSLArg0W4BEq-45" value="Tiene" style="shape=rhombus;double=1;perimeter=rhombusPerimeter;whiteSpace=wrap;html=1;align=center;" vertex="1" parent="1">
          <mxGeometry x="1636" y="670" width="120" height="60" as="geometry" />
        </mxCell>
        <mxCell id="JgxLomzHGOhPnX3tSS69-57" value="Tiene" style="shape=rhombus;double=1;perimeter=rhombusPerimeter;whiteSpace=wrap;html=1;align=center;fontStyle=1" vertex="1" parent="1">
          <mxGeometry x="1115" y="810" width="120" height="60" as="geometry" />
        </mxCell>
        <mxCell id="JgxLomzHGOhPnX3tSS69-66" style="edgeStyle=orthogonalEdgeStyle;rounded=0;orthogonalLoop=1;jettySize=auto;html=1;entryX=0.905;entryY=-0.082;entryDx=0;entryDy=0;entryPerimeter=0;endArrow=none;endFill=0;" edge="1" parent="1" source="LTa-TaZLpSLArg0W4BEq-7" target="LTa-TaZLpSLArg0W4BEq-1">
          <mxGeometry relative="1" as="geometry">
            <Array as="points">
              <mxPoint x="310" y="260" />
              <mxPoint x="221" y="260" />
            </Array>
          </mxGeometry>
        </mxCell>
        <mxCell id="JgxLomzHGOhPnX3tSS69-69" style="edgeStyle=orthogonalEdgeStyle;rounded=0;orthogonalLoop=1;jettySize=auto;html=1;entryX=0.369;entryY=-0.024;entryDx=0;entryDy=0;entryPerimeter=0;endArrow=none;endFill=0;" edge="1" parent="1" source="LTa-TaZLpSLArg0W4BEq-5" target="LTa-TaZLpSLArg0W4BEq-1">
          <mxGeometry relative="1" as="geometry" />
        </mxCell>
        <mxCell id="LTa-TaZLpSLArg0W4BEq-50" value="Genera" style="shape=rhombus;double=1;perimeter=rhombusPerimeter;whiteSpace=wrap;html=1;align=center;fontStyle=1" vertex="1" parent="1">
          <mxGeometry x="470" y="770" width="120" height="60" as="geometry" />
        </mxCell>
        <mxCell id="LTa-TaZLpSLArg0W4BEq-54" value="Responde" style="shape=rhombus;double=1;perimeter=rhombusPerimeter;whiteSpace=wrap;html=1;align=center;" vertex="1" parent="1">
          <mxGeometry x="460" y="290" width="120" height="60" as="geometry" />
        </mxCell>
        <mxCell id="FkegxwKwUUVPsacCeXSq-2" value="HEREDA" style="shape=rhombus;double=1;perimeter=rhombusPerimeter;whiteSpace=wrap;html=1;align=center;" vertex="1" parent="1">
          <mxGeometry x="125" y="340" width="120" height="60" as="geometry" />
        </mxCell>
        <mxCell id="FkegxwKwUUVPsacCeXSq-4" value="" style="endArrow=none;html=1;rounded=0;exitX=0.5;exitY=0;exitDx=0;exitDy=0;entryX=0.5;entryY=1;entryDx=0;entryDy=0;" edge="1" parent="1" source="LTa-TaZLpSLArg0W4BEq-12" target="FkegxwKwUUVPsacCeXSq-2">
          <mxGeometry width="50" height="50" relative="1" as="geometry">
            <mxPoint x="260" y="470" as="sourcePoint" />
            <mxPoint x="310" y="420" as="targetPoint" />
          </mxGeometry>
        </mxCell>
        <mxCell id="LTa-TaZLpSLArg0W4BEq-57" value="" style="edgeStyle=entityRelationEdgeStyle;fontSize=12;html=1;endArrow=ERoneToMany;rounded=0;exitX=1;exitY=0.5;exitDx=0;exitDy=0;entryX=0;entryY=0.5;entryDx=0;entryDy=0;" edge="1" parent="1" source="LTa-TaZLpSLArg0W4BEq-1" target="LTa-TaZLpSLArg0W4BEq-54">
          <mxGeometry width="100" height="100" relative="1" as="geometry">
            <mxPoint x="360" y="400" as="sourcePoint" />
            <mxPoint x="460" y="300" as="targetPoint" />
          </mxGeometry>
        </mxCell>
        <mxCell id="LTa-TaZLpSLArg0W4BEq-59" value="" style="edgeStyle=entityRelationEdgeStyle;fontSize=12;html=1;endArrow=ERoneToMany;rounded=0;exitX=0.5;exitY=0;exitDx=0;exitDy=0;" edge="1" parent="1" source="JgxLomzHGOhPnX3tSS69-4" target="LTa-TaZLpSLArg0W4BEq-54">
          <mxGeometry width="100" height="100" relative="1" as="geometry">
            <mxPoint x="615" y="470" as="sourcePoint" />
            <mxPoint x="540" y="310" as="targetPoint" />
            <Array as="points">
              <mxPoint x="610" y="370" />
              <mxPoint x="600" y="460" />
              <mxPoint x="600" y="460" />
            </Array>
          </mxGeometry>
        </mxCell>
        <mxCell id="LTa-TaZLpSLArg0W4BEq-61" value="" style="edgeStyle=entityRelationEdgeStyle;fontSize=12;html=1;endArrow=ERzeroToMany;endFill=1;rounded=0;exitX=0;exitY=1;exitDx=0;exitDy=0;entryX=0;entryY=0.5;entryDx=0;entryDy=0;entryPerimeter=0;" edge="1" parent="1" source="LTa-TaZLpSLArg0W4BEq-12" target="JgxLomzHGOhPnX3tSS69-2">
          <mxGeometry width="100" height="100" relative="1" as="geometry">
            <mxPoint x="90" y="610" as="sourcePoint" />
            <mxPoint x="90" y="610" as="targetPoint" />
          </mxGeometry>
        </mxCell>
        <mxCell id="LTa-TaZLpSLArg0W4BEq-63" value="" style="edgeStyle=entityRelationEdgeStyle;fontSize=12;html=1;endArrow=ERmandOne;startArrow=ERmandOne;rounded=0;entryX=0;entryY=0.5;entryDx=0;entryDy=0;exitX=1;exitY=0.5;exitDx=0;exitDy=0;" edge="1" parent="1" source="JgxLomzHGOhPnX3tSS69-2" target="JgxLomzHGOhPnX3tSS69-4">
          <mxGeometry width="100" height="100" relative="1" as="geometry">
            <mxPoint x="300" y="710" as="sourcePoint" />
            <mxPoint x="400" y="610" as="targetPoint" />
          </mxGeometry>
        </mxCell>
        <mxCell id="LTa-TaZLpSLArg0W4BEq-64" value="" style="edgeStyle=entityRelationEdgeStyle;fontSize=12;html=1;endArrow=ERoneToMany;rounded=0;" edge="1" parent="1" source="JgxLomzHGOhPnX3tSS69-4" target="LTa-TaZLpSLArg0W4BEq-43">
          <mxGeometry width="100" height="100" relative="1" as="geometry">
            <mxPoint x="730" y="540" as="sourcePoint" />
            <mxPoint x="830" y="440" as="targetPoint" />
          </mxGeometry>
        </mxCell>
        <mxCell id="LTa-TaZLpSLArg0W4BEq-65" value="" style="edgeStyle=entityRelationEdgeStyle;fontSize=12;html=1;endArrow=ERmandOne;startArrow=ERmandOne;rounded=0;entryX=0;entryY=0.5;entryDx=0;entryDy=0;exitX=1;exitY=0.5;exitDx=0;exitDy=0;" edge="1" parent="1" source="LTa-TaZLpSLArg0W4BEq-43" target="LTa-TaZLpSLArg0W4BEq-14">
          <mxGeometry width="100" height="100" relative="1" as="geometry">
            <mxPoint x="1010" y="660" as="sourcePoint" />
            <mxPoint x="1110" y="560" as="targetPoint" />
          </mxGeometry>
        </mxCell>
        <mxCell id="LTa-TaZLpSLArg0W4BEq-66" value="" style="edgeStyle=entityRelationEdgeStyle;fontSize=12;html=1;endArrow=ERoneToMany;rounded=0;entryX=0;entryY=0.5;entryDx=0;entryDy=0;" edge="1" parent="1" source="LTa-TaZLpSLArg0W4BEq-14" target="LTa-TaZLpSLArg0W4BEq-44">
          <mxGeometry width="100" height="100" relative="1" as="geometry">
            <mxPoint x="1250" y="600" as="sourcePoint" />
            <mxPoint x="1350" y="500" as="targetPoint" />
          </mxGeometry>
        </mxCell>
        <mxCell id="LTa-TaZLpSLArg0W4BEq-67" value="" style="edgeStyle=entityRelationEdgeStyle;fontSize=12;html=1;endArrow=ERoneToMany;rounded=0;entryX=1;entryY=0.5;entryDx=0;entryDy=0;exitX=0.5;exitY=0;exitDx=0;exitDy=0;" edge="1" parent="1" source="LTa-TaZLpSLArg0W4BEq-32" target="LTa-TaZLpSLArg0W4BEq-44">
          <mxGeometry width="100" height="100" relative="1" as="geometry">
            <mxPoint x="1350" y="690" as="sourcePoint" />
            <mxPoint x="1450" y="590" as="targetPoint" />
          </mxGeometry>
        </mxCell>
        <mxCell id="LTa-TaZLpSLArg0W4BEq-68" value="" style="edgeStyle=entityRelationEdgeStyle;fontSize=12;html=1;endArrow=ERoneToMany;rounded=0;exitX=1;exitY=0.5;exitDx=0;exitDy=0;entryX=0;entryY=0.5;entryDx=0;entryDy=0;" edge="1" parent="1" source="LTa-TaZLpSLArg0W4BEq-32" target="LTa-TaZLpSLArg0W4BEq-45">
          <mxGeometry width="100" height="100" relative="1" as="geometry">
            <mxPoint x="1530" y="830" as="sourcePoint" />
            <mxPoint x="1630" y="730" as="targetPoint" />
          </mxGeometry>
        </mxCell>
        <mxCell id="LTa-TaZLpSLArg0W4BEq-69" value="" style="edgeStyle=entityRelationEdgeStyle;fontSize=12;html=1;endArrow=ERmandOne;startArrow=ERmandOne;rounded=0;entryX=0;entryY=0.5;entryDx=0;entryDy=0;exitX=1;exitY=0.5;exitDx=0;exitDy=0;" edge="1" parent="1" source="LTa-TaZLpSLArg0W4BEq-45" target="JgxLomzHGOhPnX3tSS69-30">
          <mxGeometry width="100" height="100" relative="1" as="geometry">
            <mxPoint x="1700" y="880" as="sourcePoint" />
            <mxPoint x="1800" y="780" as="targetPoint" />
          </mxGeometry>
        </mxCell>
        <mxCell id="LTa-TaZLpSLArg0W4BEq-73" value="" style="edgeStyle=entityRelationEdgeStyle;fontSize=12;html=1;endArrow=ERmandOne;startArrow=ERmandOne;rounded=0;entryX=0;entryY=0.5;entryDx=0;entryDy=0;exitX=1;exitY=0.5;exitDx=0;exitDy=0;" edge="1" parent="1" source="JgxLomzHGOhPnX3tSS69-18" target="LTa-TaZLpSLArg0W4BEq-50">
          <mxGeometry width="100" height="100" relative="1" as="geometry">
            <mxPoint x="280" y="920" as="sourcePoint" />
            <mxPoint x="380" y="820" as="targetPoint" />
          </mxGeometry>
        </mxCell>
        <mxCell id="LTa-TaZLpSLArg0W4BEq-74" value="Tiene" style="shape=rhombus;double=1;perimeter=rhombusPerimeter;whiteSpace=wrap;html=1;align=center;fontStyle=1" vertex="1" parent="1">
          <mxGeometry x="770" y="682.5" width="120" height="60" as="geometry" />
        </mxCell>
        <mxCell id="LTa-TaZLpSLArg0W4BEq-78" value="" style="edgeStyle=entityRelationEdgeStyle;fontSize=12;html=1;endArrow=ERmandOne;startArrow=ERmandOne;rounded=0;exitX=1;exitY=0.5;exitDx=0;exitDy=0;" edge="1" parent="1" source="LTa-TaZLpSLArg0W4BEq-50">
          <mxGeometry width="100" height="100" relative="1" as="geometry">
            <mxPoint x="470" y="640" as="sourcePoint" />
            <mxPoint x="570" y="540" as="targetPoint" />
          </mxGeometry>
        </mxCell>
        <mxCell id="LTa-TaZLpSLArg0W4BEq-80" value="" style="edgeStyle=entityRelationEdgeStyle;fontSize=12;html=1;endArrow=ERoneToMany;rounded=0;exitX=1;exitY=0.75;exitDx=0;exitDy=0;entryX=0;entryY=0.5;entryDx=0;entryDy=0;" edge="1" parent="1" source="JgxLomzHGOhPnX3tSS69-4" target="LTa-TaZLpSLArg0W4BEq-74">
          <mxGeometry width="100" height="100" relative="1" as="geometry">
            <mxPoint x="690" y="680" as="sourcePoint" />
            <mxPoint x="770" y="690" as="targetPoint" />
          </mxGeometry>
        </mxCell>
        <mxCell id="LTa-TaZLpSLArg0W4BEq-81" value="" style="edgeStyle=entityRelationEdgeStyle;fontSize=12;html=1;endArrow=ERoneToMany;rounded=0;exitX=0.5;exitY=0;exitDx=0;exitDy=0;entryX=1;entryY=0.5;entryDx=0;entryDy=0;" edge="1" parent="1" source="LTa-TaZLpSLArg0W4BEq-23" target="LTa-TaZLpSLArg0W4BEq-74">
          <mxGeometry width="100" height="100" relative="1" as="geometry">
            <mxPoint x="940" y="820" as="sourcePoint" />
            <mxPoint x="1040" y="720" as="targetPoint" />
          </mxGeometry>
        </mxCell>
        <mxCell id="LTa-TaZLpSLArg0W4BEq-82" style="edgeStyle=orthogonalEdgeStyle;rounded=0;orthogonalLoop=1;jettySize=auto;html=1;exitX=0.25;exitY=1;exitDx=0;exitDy=0;entryX=0.5;entryY=0;entryDx=0;entryDy=0;endArrow=none;endFill=0;" edge="1" parent="1" source="JgxLomzHGOhPnX3tSS69-4" target="JgxLomzHGOhPnX3tSS69-9">
          <mxGeometry relative="1" as="geometry" />
        </mxCell>
        <mxCell id="LTa-TaZLpSLArg0W4BEq-84" value="Tiene" style="shape=rhombus;double=1;perimeter=rhombusPerimeter;whiteSpace=wrap;html=1;align=center;fontStyle=1" vertex="1" parent="1">
          <mxGeometry x="1030" y="670" width="120" height="60" as="geometry" />
        </mxCell>
        <mxCell id="LTa-TaZLpSLArg0W4BEq-85" value="" style="edgeStyle=entityRelationEdgeStyle;fontSize=12;html=1;endArrow=ERoneToMany;rounded=0;exitX=0.25;exitY=1;exitDx=0;exitDy=0;entryX=1;entryY=0.5;entryDx=0;entryDy=0;" edge="1" parent="1" source="LTa-TaZLpSLArg0W4BEq-14" target="LTa-TaZLpSLArg0W4BEq-84">
          <mxGeometry width="100" height="100" relative="1" as="geometry">
            <mxPoint x="1180" y="730" as="sourcePoint" />
            <mxPoint x="1280" y="630" as="targetPoint" />
          </mxGeometry>
        </mxCell>
        <mxCell id="LTa-TaZLpSLArg0W4BEq-86" value="" style="edgeStyle=entityRelationEdgeStyle;fontSize=12;html=1;endArrow=ERoneToMany;rounded=0;exitX=0;exitY=0.5;exitDx=0;exitDy=0;entryX=1;entryY=0.25;entryDx=0;entryDy=0;entryPerimeter=0;" edge="1" parent="1" source="LTa-TaZLpSLArg0W4BEq-84" target="LTa-TaZLpSLArg0W4BEq-23">
          <mxGeometry width="100" height="100" relative="1" as="geometry">
            <mxPoint x="1120" y="870" as="sourcePoint" />
            <mxPoint x="1220" y="770" as="targetPoint" />
          </mxGeometry>
        </mxCell>
        <mxCell id="LTa-TaZLpSLArg0W4BEq-89" value="" style="edgeStyle=entityRelationEdgeStyle;fontSize=12;html=1;endArrow=ERoneToMany;rounded=0;exitX=0;exitY=0.5;exitDx=0;exitDy=0;entryX=1;entryY=0.5;entryDx=0;entryDy=0;" edge="1" parent="1" source="LTa-TaZLpSLArg0W4BEq-32" target="JgxLomzHGOhPnX3tSS69-57">
          <mxGeometry width="100" height="100" relative="1" as="geometry">
            <mxPoint x="1260" y="780" as="sourcePoint" />
            <mxPoint x="1360" y="680" as="targetPoint" />
          </mxGeometry>
        </mxCell>
        <mxCell id="LTa-TaZLpSLArg0W4BEq-90" value="" style="edgeStyle=entityRelationEdgeStyle;fontSize=12;html=1;endArrow=ERmandOne;startArrow=ERmandOne;rounded=0;entryX=1;entryY=0.5;entryDx=0;entryDy=0;exitX=0.1;exitY=0.544;exitDx=0;exitDy=0;exitPerimeter=0;" edge="1" parent="1" source="JgxLomzHGOhPnX3tSS69-57" target="LTa-TaZLpSLArg0W4BEq-23">
          <mxGeometry width="100" height="100" relative="1" as="geometry">
            <mxPoint x="1100" y="1060" as="sourcePoint" />
            <mxPoint x="1200" y="960" as="targetPoint" />
          </mxGeometry>
        </mxCell>
      </root>
    </mxGraphModel>
  </diagram>
</mxfile>
